<svg width="14" height="14" viewBox="0 0 14 14" fill="none" xmlns="http://www.w3.org/2000/svg">
<path d="M14 9.0963C14 6.26667 12.0815 4.31111 8.7037 4.31111H3.72593L1.99259 4.39259L3.39259 3.19259L5.53333 1.1037C5.64444 0.985185 5.71111 0.844444 5.71111 0.651852C5.71111 0.266667 5.45185 0 5.05185 0C4.8963 0 4.7037 0.0814815 4.57778 0.207407L0.222222 4.48148C0.0740741 4.62222 0 4.79259 0 4.97778C0 5.15556 0.0740741 5.32593 0.222222 5.46667L4.57778 9.74074C4.7037 9.87407 4.8963 9.94815 5.05185 9.94815C5.45185 9.94815 5.71111 9.68148 5.71111 9.2963C5.71111 9.1037 5.64444 8.96296 5.53333 8.84444L3.39259 6.76296L1.99259 5.56296L3.72593 5.63704H8.81482C11.3407 5.63704 12.6741 7.02963 12.6741 9.02222C12.6741 11.0222 11.3407 12.5037 8.81482 12.5037H7.11111C6.7037 12.5037 6.43704 12.8 6.43704 13.163C6.43704 13.5259 6.7037 13.8222 7.11111 13.8222H8.82222C12.1333 13.8222 14 11.9333 14 9.0963Z" fill="black"/>
</svg>
