<svg width="158" height="158" viewBox="0 0 158 158" fill="none" xmlns="http://www.w3.org/2000/svg">
<g filter="url(#filter0_d)">
<g clip-path="url(#clip0)">
<path d="M79.0005 17.0688C47.8155 17.0688 22.5352 42.3492 22.5352 73.5342C22.5352 97.5319 37.5071 118.03 58.6183 126.205H99.3824C120.494 118.03 135.466 97.5319 135.466 73.5342C135.466 42.3494 110.185 17.0688 79.0005 17.0688Z" fill="url(#paint0_linear)"/>
<path d="M86.4609 91.9556C84.9093 90.4617 82.5841 87.6299 82.3235 83.891C81.3267 84.4019 80.1983 84.6921 79.0013 84.6921C78.8312 84.6921 78.6632 84.6847 78.4961 84.6732V108.809C78.6643 108.804 78.8319 108.796 79.0013 108.796C81.4954 108.796 83.8679 109.314 86.0186 110.248L87.6333 95.2033C87.7628 93.9975 87.3346 92.7968 86.4609 91.9556Z" fill="#FFDD40"/>
<path d="M86.0186 110.248L87.6333 95.2033C87.6335 95.2021 87.6335 95.2007 87.6335 95.1996C87.633 95.2005 87.6326 95.2012 87.6319 95.2021C85.1062 99.4096 81.8821 98.6377 80.1785 97.7984C79.6514 97.5388 79.0619 97.4506 78.4961 97.5453V108.809C78.6643 108.804 78.8317 108.796 79.0013 108.796C81.4952 108.796 83.8679 109.314 86.0186 110.248Z" fill="#FFB332"/>
<path d="M75.6753 83.891C75.4151 87.6299 73.0902 90.4619 71.5387 91.956C70.6652 92.7972 70.237 93.998 70.3665 95.2038L71.9828 110.248C74.1335 109.314 76.5059 108.796 78.9998 108.795L78.9975 84.6916C77.8007 84.6919 76.6721 84.4019 75.6753 83.891Z" fill="#FFB332"/>
<path d="M79.0005 108.795L78.9994 97.5061C78.5979 97.4964 78.1955 97.576 77.8226 97.7511C73.1932 99.9265 70.3672 95.2037 70.3672 95.2037L71.9835 110.248C74.1342 109.315 76.5066 108.796 79.0005 108.795Z" fill="#FF9100"/>
<path d="M72.4981 74.5952C71.9922 75.5881 71.7051 76.7111 71.7051 77.902C71.7051 81.931 74.9713 85.1972 79.0003 85.1972C83.0294 85.1972 86.2956 81.931 86.2956 77.902C86.2956 76.7111 86.0084 75.5881 85.5023 74.595C81.5254 76.9598 76.4765 76.961 72.4981 74.5952Z" fill="#FFDD40"/>
<path d="M93.1678 115.414C89.9509 111.091 84.8034 108.29 79.0009 108.29C73.1984 108.29 68.0509 111.091 64.834 115.414H93.1678Z" fill="#FFDD40"/>
<path d="M82.7216 108.684C81.522 108.426 80.2775 108.291 79.0009 108.291C73.1984 108.291 68.0509 111.091 64.834 115.414H82.0177C79.8831 113.719 80.0569 109.881 82.7216 108.684Z" fill="#FFB332"/>
<path d="M50.5876 20.5014C50.583 20.5014 50.5786 20.5007 50.5742 20.5007C50.6401 31.5939 52.8513 56.8945 70.2954 73.4378C75.1337 78.026 82.8712 78.0227 87.7062 73.4378C105.15 56.895 107.362 31.595 107.427 20.5014H50.5876Z" fill="#FFDD40"/>
<path d="M67.3597 38.4448C66.4821 31.9212 71.5291 26.112 78.1116 26.1122L107.226 26.1124C107.363 23.9935 107.418 22.0995 107.427 20.5014H50.5876C50.583 20.5014 50.5786 20.5007 50.5742 20.5007C50.6401 31.5939 52.8513 56.8945 70.2954 73.4378C73.8495 76.8082 78.9671 77.6975 83.3503 76.1167C72.9756 64.5988 68.8942 49.8502 67.3597 38.4448Z" fill="#FFB332"/>
<path d="M107.422 21.0069H50.5804C48.6968 21.0069 47.1699 19.48 47.1699 17.5964C47.1699 15.7128 48.6968 14.1859 50.5804 14.1859H107.422C109.306 14.1859 110.833 15.7128 110.833 17.5964C110.833 19.4798 109.306 21.0069 107.422 21.0069Z" fill="#FFE98D"/>
<path d="M67.099 17.5961C67.099 15.7125 68.6259 14.1857 70.5095 14.1857H50.5804C48.6968 14.1857 47.1699 15.7125 47.1699 17.5961C47.1699 19.4798 48.6968 21.0066 50.5804 21.0066H70.5095C68.6259 21.0069 67.099 19.4798 67.099 17.5961Z" fill="#FFDD40"/>
<path d="M62.2665 78.2648C61.0898 77.5153 60.7434 75.9536 61.4929 74.7768C63.0195 72.3802 61.2126 69.0041 58.1796 69.0041C58.1421 69.0041 58.1045 69.0047 58.0665 69.0057L58.0033 69.0073C55.5954 69.0746 53.2246 68.137 51.5034 66.4357C32.6651 47.8159 27.1134 30.4623 25.4805 21.7752C24.545 16.798 28.2636 12.144 33.3425 12.0029C37.4183 11.8932 41.003 14.8361 41.6894 18.8564L41.7255 19.0654C42.1773 21.6174 44.4935 23.4886 47.1167 23.4146L50.0743 23.3325C51.4647 23.2991 52.6311 24.3931 52.6696 25.7877C52.7083 27.1825 51.6092 28.3445 50.2144 28.3832L47.2568 28.4653C42.1551 28.6114 37.6345 24.9442 36.75 19.9451L36.7087 19.7084C36.4427 18.1507 35.0634 17.0165 33.4824 17.0536C31.4812 17.1094 30.0892 18.9435 30.4459 20.8421C31.97 28.9497 37.1934 45.1874 55.0552 62.8422C55.801 63.5793 56.8312 63.987 57.8637 63.9566L57.9268 63.955C65.1615 63.7554 69.4263 71.7261 65.7545 77.4911C65.004 78.6695 63.4419 79.0133 62.2665 78.2648Z" fill="#FFDD40"/>
<path d="M96.9369 114.909H61.0628C59.3954 114.909 58.0312 116.273 58.0312 117.94V125.975C59.6533 126.624 61.3122 127.2 63.0043 127.7H94.9954C96.6875 127.2 98.3465 126.624 99.9685 125.975V117.94C99.9685 116.273 98.6044 114.909 96.9369 114.909Z" fill="#A05838"/>
<path d="M58.0312 117.94V125.975C59.6533 126.624 61.3122 127.2 63.0043 127.7H78.5038V126.208C78.5038 125.004 79.2676 124.157 79.9083 123.658C80.3058 123.349 80.4208 122.793 80.1883 122.346C79.6349 121.282 80.097 120.325 80.4872 119.787C80.7066 119.484 80.7301 119.089 80.578 118.748C79.9073 117.244 80.4542 116.246 81.1016 115.646C81.318 115.445 81.4243 115.178 81.4284 114.908H61.0626C59.3954 114.909 58.0312 116.273 58.0312 117.94Z" fill="#823C26"/>
<path d="M91.5813 121.224H66.418C65.4139 121.224 64.5996 122.039 64.5996 123.043V128.144C69.197 129.353 74.0226 129.999 78.9998 129.999C83.977 129.999 88.8023 129.353 93.3999 128.144V123.043C93.3999 122.039 92.5857 121.224 91.5813 121.224Z" fill="#E9EFFF"/>
<path d="M79.9083 123.658C80.3058 123.349 80.4208 122.793 80.1883 122.346C79.9834 121.952 79.9184 121.573 79.9366 121.224H66.418C65.4139 121.224 64.5996 122.039 64.5996 123.043V128.144C69.044 129.313 73.7022 129.954 78.5038 129.996V126.208C78.5035 125.004 79.2673 124.157 79.9083 123.658Z" fill="#D3DCFB"/>
<path d="M91.5817 119.33H66.4182C64.3707 119.33 62.7051 120.995 62.7051 123.043V127.609C63.951 127.984 65.2142 128.318 66.4947 128.607V123.119H91.5051V128.607C92.7856 128.318 94.0488 127.983 95.2947 127.608V123.043C95.2947 120.995 93.6292 119.33 91.5817 119.33Z" fill="#D3DCFB"/>
<path d="M80.1884 122.346C79.6351 121.281 80.0972 120.325 80.4874 119.787C80.5871 119.649 80.6445 119.492 80.665 119.33H66.4182C64.3707 119.33 62.7051 120.995 62.7051 123.043V127.609C63.9508 127.984 65.2142 128.318 66.4944 128.607V123.119H80.2647C80.3355 122.867 80.3159 122.591 80.1884 122.346Z" fill="#BEC8F7"/>
<path d="M80.5588 82.9372C81.9482 82.9372 83.0746 81.8109 83.0746 80.4214C83.0746 79.032 81.9482 77.9056 80.5588 77.9056C79.1693 77.9056 78.043 79.032 78.043 80.4214C78.043 81.8109 79.1693 82.9372 80.5588 82.9372Z" fill="#FFE98D"/>
<path d="M83.7365 42.5365C85.1259 42.5365 86.2523 41.4102 86.2523 40.0207C86.2523 38.6313 85.1259 37.5049 83.7365 37.5049C82.3471 37.5049 81.2207 38.6313 81.2207 40.0207C81.2207 41.4102 82.3471 42.5365 83.7365 42.5365Z" fill="#FFE98D"/>
<path d="M92.1437 39.2288C94.6338 39.2288 96.6525 37.2101 96.6525 34.72C96.6525 32.2298 94.6338 30.2111 92.1437 30.2111C89.6535 30.2111 87.6348 32.2298 87.6348 34.72C87.6348 37.2101 89.6535 39.2288 92.1437 39.2288Z" fill="#FFE98D"/>
<path d="M32.5831 16.1401C32.5831 16.5461 32.5038 16.9331 32.3646 17.2899C32.7073 17.15 33.0818 17.0649 33.4821 17.0539C35.0631 17.0168 36.4425 18.1509 36.7085 19.7086L36.7497 19.9453C37.6342 24.9444 42.1547 28.6116 47.2565 28.4655L50.2142 28.3835C51.609 28.3448 52.7081 27.1827 52.6693 25.7879C52.6309 24.3934 51.4644 23.2993 50.074 23.3328L47.1164 23.4148C44.4932 23.4885 42.177 21.6176 41.7253 19.0656L41.6891 18.8566C41.0028 14.8361 37.4181 11.8932 33.3422 12.0029C32.0014 12.0402 30.7568 12.3945 29.666 12.9838C31.2982 13.1126 32.5831 14.4749 32.5831 16.1401Z" fill="#FFB332"/>
<path d="M95.7356 78.2648C96.9124 77.5153 97.2588 75.9536 96.5093 74.7768C94.9824 72.3802 96.7895 69.0041 99.8223 69.0041C99.8598 69.0041 99.8976 69.0047 99.9354 69.0057L99.9986 69.0073C102.407 69.0746 104.777 68.137 106.498 66.4357C125.337 47.8157 130.889 30.4621 132.521 21.7752C133.457 16.7978 129.738 12.144 124.659 12.0029C120.584 11.8932 116.999 14.8361 116.313 18.8564L116.277 19.0654C115.825 21.6174 113.509 23.4886 110.885 23.4146L107.928 23.3325C106.537 23.2991 105.371 24.3931 105.333 25.7877C105.294 27.1825 106.393 28.3445 107.788 28.3832L110.745 28.4653C115.847 28.6114 120.368 24.9442 121.252 19.9451L121.293 19.7084C121.559 18.1507 122.939 17.0165 124.52 17.0536C126.521 17.1094 127.913 18.9435 127.556 20.8421C126.032 28.9497 120.809 45.1874 102.947 62.8422C102.201 63.5793 101.171 63.987 100.138 63.9566L100.075 63.955C92.8407 63.7554 88.5758 71.7261 92.2477 77.4911C92.9981 78.6695 94.5602 79.0133 95.7356 78.2648Z" fill="#FFDD40"/>
<path d="M125.417 16.1401C125.417 16.5462 125.497 16.9331 125.636 17.2899C125.293 17.15 124.919 17.0649 124.518 17.0539C122.937 17.0168 121.558 18.1509 121.292 19.7086L121.251 19.9453C120.366 24.9444 115.846 28.6117 110.744 28.4655L107.786 28.3835C106.391 28.3448 105.292 27.1827 105.331 25.7879C105.37 24.3934 106.536 23.2993 107.926 23.3328L110.884 23.4148C113.507 23.4886 115.823 21.6176 116.275 19.0656L116.312 18.8566C116.998 14.8363 120.583 11.8934 124.658 12.0032C125.999 12.0405 127.244 12.3947 128.334 12.984C126.702 13.1126 125.417 14.4749 125.417 16.1401Z" fill="#FFB332"/>
</g>
</g>
<defs>
<filter id="filter0_d" x="-1" y="-1.00006" width="160" height="160" filterUnits="userSpaceOnUse" color-interpolation-filters="sRGB">
<feFlood flood-opacity="0" result="BackgroundImageFix"/>
<feColorMatrix in="SourceAlpha" type="matrix" values="0 0 0 0 0 0 0 0 0 0 0 0 0 0 0 0 0 0 127 0"/>
<feOffset dy="8"/>
<feGaussianBlur stdDeviation="10"/>
<feColorMatrix type="matrix" values="0 0 0 0 0 0 0 0 0 0 0 0 0 0 0 0 0 0 0.25 0"/>
<feBlend mode="normal" in2="BackgroundImageFix" result="effect1_dropShadow"/>
<feBlend mode="normal" in="SourceGraphic" in2="effect1_dropShadow" result="shape"/>
</filter>
<linearGradient id="paint0_linear" x1="79.0005" y1="138" x2="79.0005" y2="-14.0001" gradientUnits="userSpaceOnUse">
<stop stop-color="#FF1217"/>
<stop offset="1" stop-color="#860D0D"/>
</linearGradient>
<clipPath id="clip0">
<rect width="118" height="118" fill="white" transform="translate(20 11.9999)"/>
</clipPath>
</defs>
</svg>
