<svg width="16" height="16" viewBox="0 0 16 16" fill="none" xmlns="http://www.w3.org/2000/svg">
<path d="M8 1C4.13438 1 1 4.13437 1 8C1 11.8656 4.13438 15 8 15C11.8656 15 15 11.8656 15 8C15 4.13437 11.8656 1 8 1Z" fill="#197532"/>
<path d="M11.2406 7.79843L6.61407 4.43904C6.57696 4.41184 6.53303 4.39548 6.48717 4.39178C6.44131 4.38808 6.39532 4.39719 6.35434 4.41809C6.31335 4.43898 6.27897 4.47085 6.25503 4.51014C6.23109 4.54943 6.21853 4.5946 6.21875 4.64061V11.3594C6.21875 11.5641 6.45 11.6797 6.61407 11.5609L11.2406 8.20155C11.2726 8.17854 11.2986 8.14826 11.3165 8.11321C11.3345 8.07817 11.3438 8.03936 11.3438 7.99999C11.3438 7.96062 11.3345 7.92181 11.3165 7.88677C11.2986 7.85172 11.2726 7.82144 11.2406 7.79843Z" fill="white"/>
</svg>
