<svg width="120" height="121" viewBox="0 0 120 121" fill="none" xmlns="http://www.w3.org/2000/svg">
<g clip-path="url(#clip0)">
<path d="M119 61.0001C119 90.9956 96.6123 115.766 67.6354 119.509L60 120L52.3646 119.509C23.3877 115.766 1 90.9956 1 61.0001C1 28.4164 27.4163 2.00006 60 2.00006C92.5837 2.00006 119 28.4164 119 61.0001Z" fill="url(#paint0_linear)"/>
<path d="M59.1621 51.8127L76.6736 27.7144C79.5895 23.7017 85.8177 24.6432 87.4171 29.3385L95.073 51.8127H59.1621Z" fill="#FFE400"/>
<path d="M60.8387 51.8127L43.3272 27.7144C40.4113 23.7017 34.1831 24.6432 32.5837 29.3385L24.9277 51.8127H60.8387Z" fill="#FFE400"/>
<path d="M74.3084 53.4713H45.6934C45.6934 45.5702 52.0999 39.1638 60.0009 39.1638C67.9018 39.1638 74.3084 45.5702 74.3084 53.4713Z" fill="#FFCE00"/>
<path d="M74.3075 53.4713H60V39.1638C67.9012 39.1638 74.3075 45.5702 74.3075 53.4713Z" fill="#EC781B"/>
<path d="M97.3159 61.3942V106.702C89.0145 113.487 78.8323 118.055 67.673 119.507H67.6569L60.0007 120L52.3446 119.507H52.3284C41.1691 118.055 30.987 113.487 22.6855 106.702V61.3942H97.3159Z" fill="#DE1263"/>
<path d="M97.3152 61.3942V106.702C89.0137 113.487 78.8316 118.055 67.6723 119.507H67.6562L60 120V61.3942H97.3152Z" fill="#BC0E5C"/>
<path d="M102.004 49.7834V73.007C102.004 74.0386 101.168 74.8738 100.137 74.8738H19.863C18.8294 74.8738 17.9941 74.0386 17.9941 73.007V49.7834C17.9941 48.7518 18.8294 47.9145 19.863 47.9145H52.3266L59.9989 50.9106L67.6712 47.9145H100.137C101.168 47.9145 102.004 48.7518 102.004 49.7834Z" fill="#FE3345"/>
<path d="M102.005 49.7834V73.007C102.005 74.0386 101.17 74.8738 100.138 74.8738H60V51.3716L67.6723 47.9145H100.138C101.17 47.9145 102.005 48.7518 102.005 49.7834Z" fill="#DE1263"/>
<path d="M79.5158 67.3255C80.9052 67.3255 82.0316 66.1992 82.0316 64.8097C82.0316 63.4203 80.9052 62.2939 79.5158 62.2939C78.1264 62.2939 77 63.4203 77 64.8097C77 66.1992 78.1264 67.3255 79.5158 67.3255Z" fill="#FE3345"/>
<path d="M87.923 64.0178C90.4131 64.0178 92.4318 61.9991 92.4318 59.509C92.4318 57.0188 90.4131 55.0001 87.923 55.0001C85.4328 55.0001 83.4141 57.0188 83.4141 59.509C83.4141 61.9991 85.4328 64.0178 87.923 64.0178Z" fill="#FE3345"/>
<path d="M67.6727 47.914V119.507C65.1606 119.832 62.6001 120 60.0004 120C57.4007 120 54.8402 119.832 52.3281 119.507V47.914H67.6727Z" fill="#FFE400"/>
<path d="M67.6723 47.914V119.507C65.1602 119.832 62.5997 120 60 120V47.914H67.6723Z" fill="#FFCE00"/>
</g>
<defs>
<linearGradient id="paint0_linear" x1="60" y1="-50.9999" x2="60" y2="104" gradientUnits="userSpaceOnUse">
<stop stop-color="#197532"/>
<stop offset="1" stop-color="#8EFFAA"/>
</linearGradient>
<clipPath id="clip0">
<rect width="118" height="118" fill="white" transform="translate(1 2.00006)"/>
</clipPath>
</defs>
</svg>
