<svg width="22" height="22" viewBox="0 0 22 22" fill="none" xmlns="http://www.w3.org/2000/svg">
<path d="M10.0316 22H11.9684C12.5158 22 12.9158 21.6737 13.0316 21.1368L13.5789 18.8211C13.9895 18.6842 14.3895 18.5263 14.7368 18.3579L16.7684 19.6C17.2211 19.8842 17.7368 19.8421 18.1158 19.4632L19.4737 18.1158C19.8526 17.7368 19.9053 17.1895 19.6 16.7368L18.3579 14.7263C18.5368 14.3579 18.6947 13.9789 18.8105 13.6L21.1474 13.0421C21.6842 12.9263 22 12.5263 22 11.9789V10.0737C22 9.53684 21.6842 9.13684 21.1474 9.02105L18.8316 8.46316C18.6947 8.03158 18.5263 7.64211 18.3789 7.31579L19.6211 5.27368C19.9158 4.82105 19.8842 4.30526 19.4947 3.92632L18.1158 2.56842C17.7263 2.21053 17.2632 2.14737 16.8 2.41053L14.7368 3.68421C14.4 3.50526 14.0105 3.34737 13.5789 3.21053L13.0316 0.863158C12.9158 0.326316 12.5158 0 11.9684 0H10.0316C9.48421 0 9.08421 0.326316 8.9579 0.863158L8.41053 3.18947C8 3.32632 7.6 3.48421 7.24211 3.67368L5.2 2.41053C4.73684 2.14737 4.26316 2.2 3.87368 2.56842L2.50526 3.92632C2.11579 4.30526 2.07368 4.82105 2.37895 5.27368L3.61053 7.31579C3.47368 7.64211 3.30526 8.03158 3.16842 8.46316L0.852632 9.02105C0.315789 9.13684 0 9.53684 0 10.0737V11.9789C0 12.5263 0.315789 12.9263 0.852632 13.0421L3.18947 13.6C3.30526 13.9789 3.46316 14.3579 3.63158 14.7263L2.4 16.7368C2.08421 17.1895 2.14737 17.7368 2.52632 18.1158L3.87368 19.4632C4.25263 19.8421 4.77895 19.8842 5.23158 19.6L7.25263 18.3579C7.61053 18.5263 8 18.6842 8.41053 18.8211L8.9579 21.1368C9.08421 21.6737 9.48421 22 10.0316 22ZM11 14.7158C8.9579 14.7158 7.28421 13.0316 7.28421 10.9895C7.28421 8.9579 8.9579 7.28421 11 7.28421C13.0421 7.28421 14.7158 8.9579 14.7158 10.9895C14.7158 13.0316 13.0421 14.7158 11 14.7158Z" fill="white"/>
</svg>
