<svg width="14" height="14" viewBox="0 0 14 14" fill="none" xmlns="http://www.w3.org/2000/svg">
<path d="M14 9.09627C14 6.26664 12.0815 4.31108 8.7037 4.31108H3.72593L1.99259 4.39256L3.39259 3.19256L5.53333 1.10367C5.64444 0.985155 5.71111 0.844414 5.71111 0.651821C5.71111 0.266636 5.45185 -3.05176e-05 5.05185 -3.05176e-05C4.8963 -3.05176e-05 4.7037 0.081451 4.57778 0.207377L0.222222 4.48145C0.0740741 4.62219 0 4.79256 0 4.97775C0 5.15552 0.0740741 5.3259 0.222222 5.46664L4.57778 9.74071C4.7037 9.87404 4.8963 9.94812 5.05185 9.94812C5.45185 9.94812 5.71111 9.68145 5.71111 9.29627C5.71111 9.10367 5.64444 8.96293 5.53333 8.84441L3.39259 6.76293L1.99259 5.56293L3.72593 5.63701H8.81482C11.3407 5.63701 12.6741 7.0296 12.6741 9.02219C12.6741 11.0222 11.3407 12.5037 8.81482 12.5037H7.11111C6.7037 12.5037 6.43704 12.8 6.43704 13.1629C6.43704 13.5259 6.7037 13.8222 7.11111 13.8222H8.82222C12.1333 13.8222 14 11.9333 14 9.09627Z" fill="white"/>
</svg>
